<mxfile host="65bd71144e">
    <diagram id="6hGFLwfOUW9BJ-s0fimq" name="Page-1">
        <mxGraphModel dx="968" dy="2334" grid="1" gridSize="10" guides="1" tooltips="1" connect="1" arrows="1" fold="1" page="1" pageScale="1" pageWidth="1169" pageHeight="1654" math="0" shadow="0">
            <root>
                <mxCell id="0"/>
                <mxCell id="1" parent="0"/>
                <mxCell id="376" value="" style="rounded=0;whiteSpace=wrap;html=1;fontColor=#FFFFFF;align=left;" vertex="1" parent="1">
                    <mxGeometry x="550" y="412" width="830" height="478" as="geometry"/>
                </mxCell>
                <mxCell id="82" value="are you a nurse?&lt;br&gt;yes" style="shape=callout;whiteSpace=wrap;html=1;perimeter=calloutPerimeter;shadow=0;glass=0;comic=0;gradientColor=none;size=30;position=0.21;position2=0;base=20;direction=east;flipH=0;flipV=0;" parent="1" vertex="1">
                    <mxGeometry x="1390" y="770" width="142" height="70" as="geometry"/>
                </mxCell>
                <mxCell id="148" value="" style="edgeStyle=none;html=1;exitX=1;exitY=0.75;exitDx=0;exitDy=0;" edge="1" parent="1" source="372">
                    <mxGeometry x="1002.04" y="675" as="geometry">
                        <mxPoint x="1312.5" y="943" as="sourcePoint"/>
                        <mxPoint x="1558" y="843" as="targetPoint"/>
                        <Array as="points"/>
                    </mxGeometry>
                </mxCell>
                <mxCell id="203" value="" style="strokeWidth=1;shadow=0;dashed=0;align=center;html=1;shape=mxgraph.mockup.forms.rrect;rSize=0;strokeColor=#999999;fillColor=#ffffff;" vertex="1" parent="1">
                    <mxGeometry x="560" y="-200" width="200" height="350" as="geometry"/>
                </mxCell>
                <mxCell id="204" value="Sign In" style="strokeWidth=1;shadow=0;dashed=0;align=center;html=1;shape=mxgraph.mockup.forms.anchor;fontSize=12;fontColor=#666666;align=left;resizeWidth=1;spacingLeft=0;" vertex="1" parent="203">
                    <mxGeometry width="100" height="20" relative="1" as="geometry">
                        <mxPoint x="10" y="10" as="offset"/>
                    </mxGeometry>
                </mxCell>
                <mxCell id="205" value="" style="shape=line;strokeColor=#ddeeff;strokeWidth=2;html=1;resizeWidth=1;" vertex="1" parent="203">
                    <mxGeometry width="180" height="10" relative="1" as="geometry">
                        <mxPoint x="10" y="30" as="offset"/>
                    </mxGeometry>
                </mxCell>
                <mxCell id="206" value="Email:" style="strokeWidth=1;shadow=0;dashed=0;align=center;html=1;shape=mxgraph.mockup.forms.anchor;fontSize=12;fontColor=#666666;align=left;resizeWidth=1;spacingLeft=0;" vertex="1" parent="203">
                    <mxGeometry width="100" height="20" relative="1" as="geometry">
                        <mxPoint x="10" y="40" as="offset"/>
                    </mxGeometry>
                </mxCell>
                <mxCell id="207" value="abcde@gmail.com" style="strokeWidth=1;shadow=0;dashed=0;align=center;html=1;shape=mxgraph.mockup.forms.rrect;rSize=0;strokeColor=#999999;fontColor=#666666;align=left;spacingLeft=5;resizeWidth=1;" vertex="1" parent="203">
                    <mxGeometry width="150" height="25" relative="1" as="geometry">
                        <mxPoint x="10" y="60" as="offset"/>
                    </mxGeometry>
                </mxCell>
                <mxCell id="208" value="Password:" style="strokeWidth=1;shadow=0;dashed=0;align=center;html=1;shape=mxgraph.mockup.forms.anchor;fontSize=12;fontColor=#666666;align=left;resizeWidth=1;spacingLeft=0;" vertex="1" parent="203">
                    <mxGeometry width="100" height="20" relative="1" as="geometry">
                        <mxPoint x="10" y="95" as="offset"/>
                    </mxGeometry>
                </mxCell>
                <mxCell id="209" value="********" style="strokeWidth=1;shadow=0;dashed=0;align=center;html=1;shape=mxgraph.mockup.forms.rrect;rSize=0;strokeColor=#999999;fontColor=#666666;align=left;spacingLeft=5;resizeWidth=1;" vertex="1" parent="203">
                    <mxGeometry width="150" height="25" relative="1" as="geometry">
                        <mxPoint x="10" y="115" as="offset"/>
                    </mxGeometry>
                </mxCell>
                <mxCell id="210" value="SIGN IN" style="strokeWidth=1;shadow=0;dashed=0;align=center;html=1;shape=mxgraph.mockup.forms.rrect;rSize=5;strokeColor=none;fontColor=#ffffff;fillColor=#66bbff;fontSize=16;fontStyle=1;" vertex="1" parent="203">
                    <mxGeometry y="1" width="80" height="30" relative="1" as="geometry">
                        <mxPoint x="20" y="-150" as="offset"/>
                    </mxGeometry>
                </mxCell>
                <mxCell id="211" value="Forgot Password?" style="strokeWidth=1;shadow=0;dashed=0;align=center;html=1;shape=mxgraph.mockup.forms.anchor;fontSize=12;fontColor=#9999ff;align=left;spacingLeft=0;fontStyle=4;resizeWidth=1;" vertex="1" parent="203">
                    <mxGeometry y="1" width="150" height="20" relative="1" as="geometry">
                        <mxPoint x="10" y="-110" as="offset"/>
                    </mxGeometry>
                </mxCell>
                <mxCell id="212" value="" style="shape=line;strokeColor=#ddeeff;strokeWidth=2;html=1;resizeWidth=1;" vertex="1" parent="203">
                    <mxGeometry y="1" width="180" height="10" relative="1" as="geometry">
                        <mxPoint x="10" y="-90" as="offset"/>
                    </mxGeometry>
                </mxCell>
                <mxCell id="213" value="New User" style="strokeWidth=1;shadow=0;dashed=0;align=center;html=1;shape=mxgraph.mockup.forms.anchor;fontSize=12;fontColor=#666666;align=left;spacingLeft=0;resizeWidth=1;" vertex="1" parent="203">
                    <mxGeometry y="1" width="150" height="20" relative="1" as="geometry">
                        <mxPoint x="10" y="-70" as="offset"/>
                    </mxGeometry>
                </mxCell>
                <mxCell id="214" value="SIGN UP" style="strokeWidth=1;shadow=0;dashed=0;align=center;html=1;shape=mxgraph.mockup.forms.rrect;rSize=5;strokeColor=none;fontColor=#ffffff;fillColor=#66bbff;fontSize=16;fontStyle=1;" vertex="1" parent="203">
                    <mxGeometry y="1" width="80" height="30" relative="1" as="geometry">
                        <mxPoint x="20" y="-50" as="offset"/>
                    </mxGeometry>
                </mxCell>
                <mxCell id="215" value="&lt;span style=&quot;color: rgb(0 , 0 , 0) ; text-align: center&quot;&gt;sign in with googe&lt;/span&gt;" style="strokeWidth=1;shadow=0;dashed=0;align=center;html=1;shape=mxgraph.mockup.forms.rrect;rSize=0;strokeColor=#999999;fontColor=#666666;align=left;spacingLeft=5;resizeWidth=1;" vertex="1" parent="203">
                    <mxGeometry x="10" y="159.99842105263156" width="150" height="23.026315789473685" as="geometry"/>
                </mxCell>
                <mxCell id="223" value="" style="group" vertex="1" connectable="0" parent="1">
                    <mxGeometry x="990" y="440" width="342" height="146" as="geometry"/>
                </mxCell>
                <mxCell id="216" value="呼吸器系" style="dashed=0;shape=rect;fillColor=#ffffff;strokeColor=#eeeeee;shadow=1;fontColor=#000000;fontSize=24;fontStyle=0;verticalAlign=top;spacingBottom=0;spacingLeft=16;spacingTop=15;align=left;" vertex="1" parent="223">
                    <mxGeometry width="342" height="146" as="geometry"/>
                </mxCell>
                <mxCell id="217" value="頭痛や手足の痺れなどの不調が" style="text;fontColor=#999999;fontSize=13;fontStyle=0;verticalAlign=middle;spacingBottom=0;spacingLeft=16;" vertex="1" parent="216">
                    <mxGeometry width="246" height="20" relative="1" as="geometry">
                        <mxPoint y="59" as="offset"/>
                    </mxGeometry>
                </mxCell>
                <mxCell id="218" value="" style="shape=rect;fillColor=#bbbbbb;strokeColor=none;" vertex="1" parent="216">
                    <mxGeometry x="1" width="80" height="80" relative="1" as="geometry">
                        <mxPoint x="-96" y="16" as="offset"/>
                    </mxGeometry>
                </mxCell>
                <mxCell id="221" value="あれば気軽に相談してください。" style="text;fontColor=#999999;fontSize=13;fontStyle=0;verticalAlign=middle;spacingBottom=0;spacingLeft=16;" vertex="1" parent="216">
                    <mxGeometry y="80" width="246" height="20" as="geometry"/>
                </mxCell>
                <mxCell id="158" value="磯村　茜" style="text;html=1;strokeColor=none;fillColor=none;align=center;verticalAlign=middle;whiteSpace=wrap;rounded=0;" vertex="1" parent="216">
                    <mxGeometry x="260" y="110" width="57.5" height="20" as="geometry"/>
                </mxCell>
                <mxCell id="161" value="看護師経験５年" style="text;html=1;strokeColor=none;fillColor=none;align=center;verticalAlign=middle;whiteSpace=wrap;rounded=0;" vertex="1" parent="216">
                    <mxGeometry x="144.75" y="20" width="52.5" height="20" as="geometry"/>
                </mxCell>
                <mxCell id="162" style="edgeStyle=none;html=1;exitX=0.25;exitY=0;exitDx=0;exitDy=0;entryX=0.5;entryY=0;entryDx=0;entryDy=0;" edge="1" parent="216" source="161" target="161">
                    <mxGeometry relative="1" as="geometry"/>
                </mxCell>
                <mxCell id="222" value="相談する" style="dashed=0;align=center;fontSize=12;shape=rect;fillColor=#2196F3;strokeColor=none;fontStyle=1;shadow=1;fontColor=#ffffff;" vertex="1" parent="223">
                    <mxGeometry x="15" y="110" width="85" height="28" as="geometry"/>
                </mxCell>
                <mxCell id="251" value="呼吸療法認定士" style="text;html=1;strokeColor=none;fillColor=none;align=center;verticalAlign=middle;whiteSpace=wrap;rounded=0;" vertex="1" parent="223">
                    <mxGeometry x="126" y="114" width="90" height="20" as="geometry"/>
                </mxCell>
                <mxCell id="224" value="" style="group" vertex="1" connectable="0" parent="1">
                    <mxGeometry x="600" y="630" width="342" height="146" as="geometry"/>
                </mxCell>
                <mxCell id="225" value="脳神経系" style="dashed=0;shape=rect;fillColor=#ffffff;strokeColor=#eeeeee;shadow=1;fontColor=#000000;fontSize=24;fontStyle=0;verticalAlign=top;spacingBottom=0;spacingLeft=16;spacingTop=15;align=left;" vertex="1" parent="224">
                    <mxGeometry width="342" height="146" as="geometry"/>
                </mxCell>
                <mxCell id="226" value="頭痛や手足の痺れなどの不調が" style="text;fontColor=#999999;fontSize=13;fontStyle=0;verticalAlign=middle;spacingBottom=0;spacingLeft=16;" vertex="1" parent="225">
                    <mxGeometry width="246" height="20" relative="1" as="geometry">
                        <mxPoint y="59" as="offset"/>
                    </mxGeometry>
                </mxCell>
                <mxCell id="227" value="" style="shape=rect;fillColor=#bbbbbb;strokeColor=none;" vertex="1" parent="225">
                    <mxGeometry x="1" width="80" height="80" relative="1" as="geometry">
                        <mxPoint x="-96" y="16" as="offset"/>
                    </mxGeometry>
                </mxCell>
                <mxCell id="228" value="あれば気軽に相談してください。" style="text;fontColor=#999999;fontSize=13;fontStyle=0;verticalAlign=middle;spacingBottom=0;spacingLeft=16;" vertex="1" parent="225">
                    <mxGeometry y="80" width="246" height="20" as="geometry"/>
                </mxCell>
                <mxCell id="229" value="磯村　茜" style="text;html=1;strokeColor=none;fillColor=none;align=center;verticalAlign=middle;whiteSpace=wrap;rounded=0;" vertex="1" parent="225">
                    <mxGeometry x="260" y="110" width="57.5" height="20" as="geometry"/>
                </mxCell>
                <mxCell id="230" value="看護師経験５年" style="text;html=1;strokeColor=none;fillColor=none;align=center;verticalAlign=middle;whiteSpace=wrap;rounded=0;" vertex="1" parent="225">
                    <mxGeometry x="144.75" y="20" width="52.5" height="20" as="geometry"/>
                </mxCell>
                <mxCell id="231" style="edgeStyle=none;html=1;exitX=0.25;exitY=0;exitDx=0;exitDy=0;entryX=0.5;entryY=0;entryDx=0;entryDy=0;" edge="1" parent="225" source="230" target="230">
                    <mxGeometry relative="1" as="geometry"/>
                </mxCell>
                <mxCell id="232" value="相談する" style="dashed=0;align=center;fontSize=12;shape=rect;fillColor=#2196F3;strokeColor=none;fontStyle=1;shadow=1;fontColor=#ffffff;" vertex="1" parent="224">
                    <mxGeometry x="15" y="110" width="85" height="28" as="geometry"/>
                </mxCell>
                <mxCell id="233" value="" style="group" vertex="1" connectable="0" parent="1">
                    <mxGeometry x="600" y="440" width="342" height="146" as="geometry"/>
                </mxCell>
                <mxCell id="234" value="脳神経系" style="dashed=0;shape=rect;fillColor=#ffffff;strokeColor=#eeeeee;shadow=1;fontColor=#000000;fontSize=24;fontStyle=0;verticalAlign=top;spacingBottom=0;spacingLeft=16;spacingTop=15;align=left;" vertex="1" parent="233">
                    <mxGeometry width="342" height="146" as="geometry"/>
                </mxCell>
                <mxCell id="235" value="頭痛や手足の痺れなどの不調が" style="text;fontColor=#999999;fontSize=13;fontStyle=0;verticalAlign=middle;spacingBottom=0;spacingLeft=16;" vertex="1" parent="234">
                    <mxGeometry width="246" height="20" relative="1" as="geometry">
                        <mxPoint y="59" as="offset"/>
                    </mxGeometry>
                </mxCell>
                <mxCell id="236" value="" style="shape=rect;fillColor=#bbbbbb;strokeColor=none;" vertex="1" parent="234">
                    <mxGeometry x="1" width="80" height="80" relative="1" as="geometry">
                        <mxPoint x="-96" y="16" as="offset"/>
                    </mxGeometry>
                </mxCell>
                <mxCell id="237" value="あれば気軽に相談してください。" style="text;fontColor=#999999;fontSize=13;fontStyle=0;verticalAlign=middle;spacingBottom=0;spacingLeft=16;" vertex="1" parent="234">
                    <mxGeometry y="80" width="246" height="20" as="geometry"/>
                </mxCell>
                <mxCell id="238" value="磯村　茜" style="text;html=1;strokeColor=none;fillColor=none;align=center;verticalAlign=middle;whiteSpace=wrap;rounded=0;" vertex="1" parent="234">
                    <mxGeometry x="260" y="110" width="57.5" height="20" as="geometry"/>
                </mxCell>
                <mxCell id="239" value="看護師経験５年" style="text;html=1;strokeColor=none;fillColor=none;align=center;verticalAlign=middle;whiteSpace=wrap;rounded=0;" vertex="1" parent="234">
                    <mxGeometry x="144.75" y="20" width="52.5" height="20" as="geometry"/>
                </mxCell>
                <mxCell id="240" style="edgeStyle=none;html=1;exitX=0.25;exitY=0;exitDx=0;exitDy=0;entryX=0.5;entryY=0;entryDx=0;entryDy=0;" edge="1" parent="234" source="239" target="239">
                    <mxGeometry relative="1" as="geometry"/>
                </mxCell>
                <mxCell id="241" value="相談する" style="dashed=0;align=center;fontSize=12;shape=rect;fillColor=#2196F3;strokeColor=none;fontStyle=1;shadow=1;fontColor=#ffffff;" vertex="1" parent="233">
                    <mxGeometry x="15" y="110" width="85" height="28" as="geometry"/>
                </mxCell>
                <mxCell id="242" value="" style="group" vertex="1" connectable="0" parent="1">
                    <mxGeometry x="990" y="630" width="342" height="146" as="geometry"/>
                </mxCell>
                <mxCell id="243" value="呼吸器系" style="dashed=0;shape=rect;fillColor=#ffffff;strokeColor=#eeeeee;shadow=1;fontColor=#000000;fontSize=24;fontStyle=0;verticalAlign=top;spacingBottom=0;spacingLeft=16;spacingTop=15;align=left;" vertex="1" parent="242">
                    <mxGeometry width="342" height="146" as="geometry"/>
                </mxCell>
                <mxCell id="244" value="少し動いただけでも息切れがしてしまう。" style="text;fontColor=#999999;fontSize=13;fontStyle=0;verticalAlign=middle;spacingBottom=0;spacingLeft=16;" vertex="1" parent="243">
                    <mxGeometry width="246" height="20" relative="1" as="geometry">
                        <mxPoint y="59" as="offset"/>
                    </mxGeometry>
                </mxCell>
                <mxCell id="245" value="" style="shape=rect;fillColor=#bbbbbb;strokeColor=none;" vertex="1" parent="243">
                    <mxGeometry x="1" width="80" height="80" relative="1" as="geometry">
                        <mxPoint x="-96" y="16" as="offset"/>
                    </mxGeometry>
                </mxCell>
                <mxCell id="246" value="禁煙のご相談など。" style="text;fontColor=#999999;fontSize=13;fontStyle=0;verticalAlign=middle;spacingBottom=0;spacingLeft=16;" vertex="1" parent="243">
                    <mxGeometry y="80" width="246" height="20" as="geometry"/>
                </mxCell>
                <mxCell id="247" value="近藤　司" style="text;html=1;strokeColor=none;fillColor=none;align=center;verticalAlign=middle;whiteSpace=wrap;rounded=0;" vertex="1" parent="243">
                    <mxGeometry x="260" y="110" width="57.5" height="20" as="geometry"/>
                </mxCell>
                <mxCell id="248" value="看護師経験10年" style="text;html=1;strokeColor=none;fillColor=none;align=center;verticalAlign=middle;whiteSpace=wrap;rounded=0;" vertex="1" parent="243">
                    <mxGeometry x="144.75" y="20" width="52.5" height="20" as="geometry"/>
                </mxCell>
                <mxCell id="249" style="edgeStyle=none;html=1;exitX=0.25;exitY=0;exitDx=0;exitDy=0;entryX=0.5;entryY=0;entryDx=0;entryDy=0;" edge="1" parent="243" source="248" target="248">
                    <mxGeometry relative="1" as="geometry"/>
                </mxCell>
                <mxCell id="250" value="相談する" style="dashed=0;align=center;fontSize=12;shape=rect;fillColor=#2196F3;strokeColor=none;fontStyle=1;shadow=1;fontColor=#ffffff;" vertex="1" parent="242">
                    <mxGeometry x="15" y="110" width="85" height="28" as="geometry"/>
                </mxCell>
                <mxCell id="293" value="usernameさんの相談部屋開設" style="html=1;shadow=0;dashed=0;shape=mxgraph.bootstrap.rrect;rSize=5;html=1;strokeColor=#C8C8C8;fillColor=#ffffff;whiteSpace=wrap;verticalAlign=top;align=left;fontSize=18;spacing=15;spacingTop=-5;" vertex="1" parent="1">
                    <mxGeometry x="1560" y="286" width="400" height="624" as="geometry"/>
                </mxCell>
                <mxCell id="294" value="" style="shape=line;strokeColor=#dddddd;resizeWidth=1;" vertex="1" parent="293">
                    <mxGeometry width="400" height="10" relative="1" as="geometry">
                        <mxPoint y="50" as="offset"/>
                    </mxGeometry>
                </mxCell>
                <mxCell id="295" value="" style="html=1;shadow=0;dashed=0;shape=mxgraph.bootstrap.x;strokeColor=#868686;strokeWidth=2;" vertex="1" parent="293">
                    <mxGeometry x="1" width="8" height="8" relative="1" as="geometry">
                        <mxPoint x="-24" y="20" as="offset"/>
                    </mxGeometry>
                </mxCell>
                <mxCell id="296" value="本名" style="strokeColor=none;fillColor=none;resizeWidth=1;align=left;verticalAlign=top;spacing=10;fontSize=14;whiteSpace=wrap;html=1;" vertex="1" parent="293">
                    <mxGeometry width="400" height="40" relative="1" as="geometry">
                        <mxPoint y="60" as="offset"/>
                    </mxGeometry>
                </mxCell>
                <mxCell id="297" value="" style="html=1;shadow=0;dashed=0;shape=mxgraph.bootstrap.rrect;rSize=5;strokeColor=#CED4DA;fillColor=none;align=left;verticalAlign=middle;spacing=10;fontSize=14;whiteSpace=wrap;html=1;" vertex="1" parent="293">
                    <mxGeometry width="380" height="30" relative="1" as="geometry">
                        <mxPoint x="10" y="100" as="offset"/>
                    </mxGeometry>
                </mxCell>
                <mxCell id="298" value="看護師経験年数" style="strokeColor=none;fillColor=none;resizeWidth=1;align=left;verticalAlign=top;spacing=10;fontSize=14;whiteSpace=wrap;html=1;" vertex="1" parent="293">
                    <mxGeometry width="400" height="40" relative="1" as="geometry">
                        <mxPoint y="128" as="offset"/>
                    </mxGeometry>
                </mxCell>
                <mxCell id="299" value="" style="html=1;shadow=0;dashed=0;shape=mxgraph.bootstrap.rrect;rSize=5;strokeColor=#CED4DA;fillColor=none;align=left;verticalAlign=middle;spacing=10;fontSize=14;whiteSpace=wrap;html=1;" vertex="1" parent="293">
                    <mxGeometry width="80" height="30" relative="1" as="geometry">
                        <mxPoint x="10" y="164" as="offset"/>
                    </mxGeometry>
                </mxCell>
                <mxCell id="300" value="" style="shape=line;strokeColor=#dddddd;resizeWidth=1;" vertex="1" parent="293">
                    <mxGeometry width="400" height="10" relative="1" as="geometry">
                        <mxPoint y="531" as="offset"/>
                    </mxGeometry>
                </mxCell>
                <mxCell id="301" value="保存" style="html=1;shadow=0;dashed=0;shape=mxgraph.bootstrap.rrect;rSize=5;fillColor=#0085FC;strokeColor=none;fontColor=#FFFFFF;fontSize=14;" vertex="1" parent="293">
                    <mxGeometry x="1" y="1" width="110" height="40" relative="1" as="geometry">
                        <mxPoint x="-130" y="-60" as="offset"/>
                    </mxGeometry>
                </mxCell>
                <mxCell id="302" value="キャンセル" style="html=1;shadow=0;dashed=0;shape=mxgraph.bootstrap.rrect;rSize=5;fillColor=#6C757D;strokeColor=none;fontColor=#FFFFFF;fontSize=14;" vertex="1" parent="293">
                    <mxGeometry x="1" y="1" width="92" height="40" relative="1" as="geometry">
                        <mxPoint x="-242" y="-60" as="offset"/>
                    </mxGeometry>
                </mxCell>
                <mxCell id="304" value="資格" style="strokeColor=none;fillColor=none;resizeWidth=1;align=left;verticalAlign=top;spacing=10;fontSize=14;whiteSpace=wrap;html=1;" vertex="1" parent="293">
                    <mxGeometry y="268.2091261021225" width="400" height="53.10638297872341" as="geometry"/>
                </mxCell>
                <mxCell id="303" value="相談出来る専門分野" style="strokeColor=none;fillColor=none;resizeWidth=1;align=left;verticalAlign=top;spacing=10;fontSize=14;whiteSpace=wrap;html=1;" vertex="1" parent="293">
                    <mxGeometry y="194.41971451004622" width="400" height="53.10638297872341" as="geometry"/>
                </mxCell>
                <mxCell id="306" value="" style="html=1;shadow=0;dashed=0;shape=mxgraph.bootstrap.rrect;rSize=5;strokeColor=#CED4DA;fillColor=none;align=left;verticalAlign=middle;spacing=10;fontSize=14;whiteSpace=wrap;html=1;" vertex="1" parent="293">
                    <mxGeometry x="10" y="304.7043874837497" width="380" height="39.829787234042556" as="geometry"/>
                </mxCell>
                <mxCell id="307" value="Open this select menu" style="html=1;shadow=0;dashed=0;shape=mxgraph.bootstrap.rrect;rSize=5;fillColor=#ffffff;strokeColor=#CED4DA;align=left;spacing=15;fontSize=14;fontColor=#6C767D;" vertex="1" parent="293">
                    <mxGeometry x="10" y="231.71929824561406" width="200" height="32.84210526315789" as="geometry"/>
                </mxCell>
                <mxCell id="308" value="" style="shape=triangle;direction=south;fillColor=#343A40;strokeColor=none;perimeter=none;" vertex="1" parent="307">
                    <mxGeometry x="1" y="0.5" width="7" height="3" relative="1" as="geometry">
                        <mxPoint x="-17" y="1" as="offset"/>
                    </mxGeometry>
                </mxCell>
                <mxCell id="309" value="" style="shape=triangle;direction=north;fillColor=#343A40;strokeColor=none;perimeter=none;" vertex="1" parent="307">
                    <mxGeometry x="1" y="0.5" width="7" height="3" relative="1" as="geometry">
                        <mxPoint x="-17" y="-4" as="offset"/>
                    </mxGeometry>
                </mxCell>
                <mxCell id="311" value="年" style="text;html=1;strokeColor=none;fillColor=none;align=center;verticalAlign=middle;whiteSpace=wrap;rounded=0;" vertex="1" parent="293">
                    <mxGeometry x="100" y="167.86293681378794" width="40" height="26.553191489361705" as="geometry"/>
                </mxCell>
                <mxCell id="313" value="メッセージ" style="strokeColor=none;fillColor=none;resizeWidth=1;align=left;verticalAlign=top;spacing=10;fontSize=14;whiteSpace=wrap;html=1;" vertex="1" parent="293">
                    <mxGeometry y="344.53097002226764" width="400" height="53.10638297872341" as="geometry"/>
                </mxCell>
                <mxCell id="314" value="" style="html=1;shadow=0;dashed=0;shape=mxgraph.bootstrap.rrect;rSize=5;strokeColor=#CED4DA;fillColor=none;align=left;verticalAlign=middle;spacing=10;fontSize=14;whiteSpace=wrap;html=1;" vertex="1" parent="293">
                    <mxGeometry x="10" y="377.6873563218391" width="380" height="53.793103448275865" as="geometry"/>
                </mxCell>
                <mxCell id="490" value="Image cap" style="html=1;shadow=0;dashed=0;shape=mxgraph.bootstrap.topButton;rSize=5;perimeter=none;whiteSpace=wrap;fillColor=#868E96;strokeColor=#DFDFDF;fontColor=#DEE2E6;resizeWidth=1;fontSize=18;" vertex="1" parent="293">
                    <mxGeometry x="20" y="450.66373835824135" width="150" height="65.8869395711501" as="geometry"/>
                </mxCell>
                <mxCell id="315" value="this is a modal" style="shape=callout;whiteSpace=wrap;html=1;perimeter=calloutPerimeter;shadow=0;glass=0;comic=0;gradientColor=none;size=20;position=0.64;position2=0.67;base=20;direction=east;flipH=0;flipV=0;" vertex="1" parent="1">
                    <mxGeometry x="1630" y="236" width="140" height="50" as="geometry"/>
                </mxCell>
                <mxCell id="316" value="相談内容" style="html=1;shadow=0;dashed=0;shape=mxgraph.bootstrap.rrect;rSize=5;html=1;strokeColor=#C8C8C8;fillColor=#ffffff;whiteSpace=wrap;verticalAlign=top;align=left;fontSize=18;spacing=15;spacingTop=-5;" vertex="1" parent="1">
                    <mxGeometry x="530" y="1030" width="400" height="650" as="geometry"/>
                </mxCell>
                <mxCell id="317" value="" style="shape=line;strokeColor=#dddddd;resizeWidth=1;" vertex="1" parent="316">
                    <mxGeometry width="400" height="10" relative="1" as="geometry">
                        <mxPoint y="40" as="offset"/>
                    </mxGeometry>
                </mxCell>
                <mxCell id="318" value="" style="html=1;shadow=0;dashed=0;shape=mxgraph.bootstrap.x;strokeColor=#868686;strokeWidth=2;" vertex="1" parent="316">
                    <mxGeometry x="1" width="8" height="8" relative="1" as="geometry">
                        <mxPoint x="-24" y="20" as="offset"/>
                    </mxGeometry>
                </mxCell>
                <mxCell id="319" value="年齢" style="strokeColor=none;fillColor=none;resizeWidth=1;align=left;verticalAlign=top;spacing=10;fontSize=14;whiteSpace=wrap;html=1;" vertex="1" parent="316">
                    <mxGeometry width="400" height="40" relative="1" as="geometry">
                        <mxPoint y="40" as="offset"/>
                    </mxGeometry>
                </mxCell>
                <mxCell id="320" value="" style="html=1;shadow=0;dashed=0;shape=mxgraph.bootstrap.rrect;rSize=5;strokeColor=#CED4DA;fillColor=none;align=left;verticalAlign=middle;spacing=10;fontSize=14;whiteSpace=wrap;html=1;" vertex="1" parent="316">
                    <mxGeometry width="50" height="30" relative="1" as="geometry">
                        <mxPoint x="10" y="80" as="offset"/>
                    </mxGeometry>
                </mxCell>
                <mxCell id="321" value="性別" style="strokeColor=none;fillColor=none;resizeWidth=1;align=left;verticalAlign=top;spacing=10;fontSize=14;whiteSpace=wrap;html=1;" vertex="1" parent="316">
                    <mxGeometry width="400" height="40" relative="1" as="geometry">
                        <mxPoint y="109" as="offset"/>
                    </mxGeometry>
                </mxCell>
                <mxCell id="323" value="" style="shape=line;strokeColor=#dddddd;resizeWidth=1;" vertex="1" parent="316">
                    <mxGeometry width="400" height="10" relative="1" as="geometry">
                        <mxPoint y="570" as="offset"/>
                    </mxGeometry>
                </mxCell>
                <mxCell id="324" value="送信" style="html=1;shadow=0;dashed=0;shape=mxgraph.bootstrap.rrect;rSize=5;fillColor=#0085FC;strokeColor=none;fontColor=#FFFFFF;fontSize=14;" vertex="1" parent="316">
                    <mxGeometry x="1" y="1" width="110" height="40" relative="1" as="geometry">
                        <mxPoint x="-130" y="-60" as="offset"/>
                    </mxGeometry>
                </mxCell>
                <mxCell id="325" value="キャンセル" style="html=1;shadow=0;dashed=0;shape=mxgraph.bootstrap.rrect;rSize=5;fillColor=#6C757D;strokeColor=none;fontColor=#FFFFFF;fontSize=14;" vertex="1" parent="316">
                    <mxGeometry x="1" y="1" width="92" height="40" relative="1" as="geometry">
                        <mxPoint x="-242" y="-60" as="offset"/>
                    </mxGeometry>
                </mxCell>
                <mxCell id="326" value="既往歴" style="strokeColor=none;fillColor=none;resizeWidth=1;align=left;verticalAlign=top;spacing=10;fontSize=14;whiteSpace=wrap;html=1;" vertex="1" parent="316">
                    <mxGeometry x="10" y="246.20760500324988" width="400" height="55.31914893617021" as="geometry"/>
                </mxCell>
                <mxCell id="328" value="" style="html=1;shadow=0;dashed=0;shape=mxgraph.bootstrap.rrect;rSize=5;strokeColor=#CED4DA;fillColor=none;align=left;verticalAlign=middle;spacing=10;fontSize=14;whiteSpace=wrap;html=1;" vertex="1" parent="316">
                    <mxGeometry x="10" y="285.61087327681025" width="380" height="41.48936170212766" as="geometry"/>
                </mxCell>
                <mxCell id="329" value="Open this select menu" style="html=1;shadow=0;dashed=0;shape=mxgraph.bootstrap.rrect;rSize=5;fillColor=#ffffff;strokeColor=#CED4DA;align=left;spacing=15;fontSize=14;fontColor=#6C767D;" vertex="1" parent="316">
                    <mxGeometry x="10" y="219.85757575757575" width="200" height="26.354545454545455" as="geometry"/>
                </mxCell>
                <mxCell id="330" value="" style="shape=triangle;direction=south;fillColor=#343A40;strokeColor=none;perimeter=none;" vertex="1" parent="329">
                    <mxGeometry x="1" y="0.5" width="7" height="3" relative="1" as="geometry">
                        <mxPoint x="-17" y="1" as="offset"/>
                    </mxGeometry>
                </mxCell>
                <mxCell id="331" value="" style="shape=triangle;direction=north;fillColor=#343A40;strokeColor=none;perimeter=none;" vertex="1" parent="329">
                    <mxGeometry x="1" y="0.5" width="7" height="3" relative="1" as="geometry">
                        <mxPoint x="-17" y="-4" as="offset"/>
                    </mxGeometry>
                </mxCell>
                <mxCell id="333" value="相談内容" style="strokeColor=none;fillColor=none;resizeWidth=1;align=left;verticalAlign=top;spacing=10;fontSize=14;whiteSpace=wrap;html=1;" vertex="1" parent="316">
                    <mxGeometry y="327.0968967544331" width="400" height="55.31914893617021" as="geometry"/>
                </mxCell>
                <mxCell id="334" value="" style="html=1;shadow=0;dashed=0;shape=mxgraph.bootstrap.rrect;rSize=5;strokeColor=#CED4DA;fillColor=none;align=left;verticalAlign=middle;spacing=10;fontSize=14;whiteSpace=wrap;html=1;" vertex="1" parent="316">
                    <mxGeometry x="10" y="364.3932098765432" width="380" height="101.03888888888888" as="geometry"/>
                </mxCell>
                <mxCell id="336" value="歳" style="text;html=1;strokeColor=none;fillColor=none;align=center;verticalAlign=middle;whiteSpace=wrap;rounded=0;" vertex="1" parent="316">
                    <mxGeometry x="70" y="76.46976069224446" width="40" height="27.659574468085104" as="geometry"/>
                </mxCell>
                <mxCell id="338" value="妊娠の有無" style="strokeColor=none;fillColor=none;resizeWidth=1;align=left;verticalAlign=top;spacing=10;fontSize=14;whiteSpace=wrap;html=1;" vertex="1" parent="316">
                    <mxGeometry y="189.14703346855984" width="400" height="44.827586206896555" as="geometry"/>
                </mxCell>
                <mxCell id="339" value="Open this select menu" style="html=1;shadow=0;dashed=0;shape=mxgraph.bootstrap.rrect;rSize=5;fillColor=#ffffff;strokeColor=#CED4DA;align=left;spacing=15;fontSize=14;fontColor=#6C767D;" vertex="1" parent="316">
                    <mxGeometry x="10" y="150.00227272727273" width="200" height="29.545454545454547" as="geometry"/>
                </mxCell>
                <mxCell id="340" value="" style="shape=triangle;direction=south;fillColor=#343A40;strokeColor=none;perimeter=none;" vertex="1" parent="339">
                    <mxGeometry x="1" y="0.5" width="7" height="3" relative="1" as="geometry">
                        <mxPoint x="-17" y="1" as="offset"/>
                    </mxGeometry>
                </mxCell>
                <mxCell id="341" value="" style="shape=triangle;direction=north;fillColor=#343A40;strokeColor=none;perimeter=none;" vertex="1" parent="339">
                    <mxGeometry x="1" y="0.5" width="7" height="3" relative="1" as="geometry">
                        <mxPoint x="-17" y="-4" as="offset"/>
                    </mxGeometry>
                </mxCell>
                <mxCell id="487" value="Image cap" style="html=1;shadow=0;dashed=0;shape=mxgraph.bootstrap.topButton;rSize=5;perimeter=none;whiteSpace=wrap;fillColor=#868E96;strokeColor=#DFDFDF;fontColor=#DEE2E6;resizeWidth=1;fontSize=18;" vertex="1" parent="316">
                    <mxGeometry x="15" y="489.99679012345683" width="150" height="72.22222222222221" as="geometry"/>
                </mxCell>
                <mxCell id="335" value="" style="edgeStyle=none;html=1;exitX=0.25;exitY=1;exitDx=0;exitDy=0;" edge="1" parent="1" source="232">
                    <mxGeometry x="294.54" y="595" as="geometry">
                        <mxPoint x="605" y="863" as="sourcePoint"/>
                        <mxPoint x="636" y="1025" as="targetPoint"/>
                    </mxGeometry>
                </mxCell>
                <mxCell id="353" value="" style="dashed=0;shape=rect;fillColor=#ffffff;strokeColor=none;" vertex="1" parent="1">
                    <mxGeometry x="550" y="260" width="830" height="152" as="geometry"/>
                </mxCell>
                <mxCell id="354" value="" style="dashed=0;shape=rect;fillColor=#00A0B4;strokeColor=none;resizeWidth=1;" vertex="1" parent="353">
                    <mxGeometry width="830" height="32" relative="1" as="geometry"/>
                </mxCell>
                <mxCell id="355" value="" style="dashed=0;shape=mxgraph.gmdl.x;strokeColor=#ABDFE6;strokeWidth=2;" vertex="1" parent="354">
                    <mxGeometry x="1" width="12" height="12" relative="1" as="geometry">
                        <mxPoint x="-27" y="11" as="offset"/>
                    </mxGeometry>
                </mxCell>
                <mxCell id="356" value="" style="shape=rect;strokeColor=#ABDFE6;strokeWidth=2;fillColor=none;" vertex="1" parent="354">
                    <mxGeometry x="1" width="13" height="10" relative="1" as="geometry">
                        <mxPoint x="-59" y="13" as="offset"/>
                    </mxGeometry>
                </mxCell>
                <mxCell id="357" value="" style="shape=line;strokeColor=#ABDFE6;strokeWidth=2;" vertex="1" parent="354">
                    <mxGeometry x="1" width="14" height="2" relative="1" as="geometry">
                        <mxPoint x="-91" y="21" as="offset"/>
                    </mxGeometry>
                </mxCell>
                <mxCell id="358" value="KIKU KAN" style="dashed=0;shape=rect;strokeColor=none;fillColor=#00BCD4;resizeWidth=1;resizeHeight=1;fontSize=20;fontColor=#FFFFFF;spacingTop=9;verticalAlign=top;align=left;spacingLeft=72;" vertex="1" parent="353">
                    <mxGeometry width="830" height="120" relative="1" as="geometry">
                        <mxPoint y="32" as="offset"/>
                    </mxGeometry>
                </mxCell>
                <mxCell id="359" value="" style="dashed=0;shape=mxgraph.gmdl.preferences;strokeColor=none;fillColor=#ffffff;" vertex="1" parent="358">
                    <mxGeometry width="24" height="16" relative="1" as="geometry">
                        <mxPoint x="16" y="20" as="offset"/>
                    </mxGeometry>
                </mxCell>
                <mxCell id="360" value="相談部屋一覧" style="text;fontSize=13;fontColor=#FFFFFF;verticalAlign=middle;align=center;" vertex="1" parent="358">
                    <mxGeometry y="1" width="106" height="48" relative="1" as="geometry">
                        <mxPoint x="68" y="-48" as="offset"/>
                    </mxGeometry>
                </mxCell>
                <mxCell id="361" value="相談中の部屋一覧" style="text;fontSize=13;fontColor=#FFFFFF;verticalAlign=middle;align=center;textOpacity=80;" vertex="1" parent="358">
                    <mxGeometry y="1" width="106" height="48" relative="1" as="geometry">
                        <mxPoint x="174" y="-48" as="offset"/>
                    </mxGeometry>
                </mxCell>
                <mxCell id="363" value="開設している相談部屋一覧" style="text;fontSize=13;fontColor=#FFFFFF;verticalAlign=middle;align=center;textOpacity=80;" vertex="1" parent="358">
                    <mxGeometry y="1" width="106" height="48" relative="1" as="geometry">
                        <mxPoint x="330" y="-48" as="offset"/>
                    </mxGeometry>
                </mxCell>
                <mxCell id="367" value="" style="dashed=0;shape=rect;strokeColor=none;fillColor=#F1FB8F;" vertex="1" parent="358">
                    <mxGeometry y="1" width="106" height="4" relative="1" as="geometry">
                        <mxPoint x="68" y="-3" as="offset"/>
                    </mxGeometry>
                </mxCell>
                <mxCell id="368" value="" style="dashed=0;shape=mxgraph.gmdl.search;strokeColor=#ffffff;fillColor=none;strokeWidth=2;" vertex="1" parent="358">
                    <mxGeometry x="1" width="16" height="16" relative="1" as="geometry">
                        <mxPoint x="-75" y="20" as="offset"/>
                    </mxGeometry>
                </mxCell>
                <mxCell id="369" value="" style="dashed=0;shape=mxgraph.gmdl.settings;strokeColor=none;fillColor=#ffffff;" vertex="1" parent="358">
                    <mxGeometry x="1" width="5" height="16" relative="1" as="geometry">
                        <mxPoint x="-28" y="20" as="offset"/>
                    </mxGeometry>
                </mxCell>
                <mxCell id="373" value="welcome username" style="text;fontSize=13;fontColor=#FFFFFF;verticalAlign=middle;align=left;" vertex="1" parent="358">
                    <mxGeometry x="200" y="8" width="106" height="48" as="geometry"/>
                </mxCell>
                <mxCell id="378" value="" style="aspect=fixed;pointerEvents=1;shadow=0;dashed=0;html=1;strokeColor=none;labelPosition=center;verticalLabelPosition=bottom;verticalAlign=top;align=center;fillColor=#00188D;shape=mxgraph.azure.user;fontColor=#FFFFFF;" vertex="1" parent="358">
                    <mxGeometry x="333" y="8" width="47" height="50" as="geometry"/>
                </mxCell>
                <mxCell id="370" value="" style="shape=ellipse;fillColor=#FF4081;strokeColor=none;shadow=1;aspect=fixed;" vertex="1" parent="1">
                    <mxGeometry x="1276" y="810" width="56" height="56" as="geometry"/>
                </mxCell>
                <mxCell id="372" value="相談部屋開設" style="text;html=1;strokeColor=none;fillColor=none;align=center;verticalAlign=middle;whiteSpace=wrap;rounded=0;fontColor=#FFFFFF;fontStyle=1" vertex="1" parent="1">
                    <mxGeometry x="1276" y="828" width="56" height="20" as="geometry"/>
                </mxCell>
                <mxCell id="379" value="" style="strokeWidth=1;shadow=0;dashed=0;align=center;html=1;shape=mxgraph.mockup.forms.rrect;rSize=0;strokeColor=#999999;fillColor=#ffffff;" vertex="1" parent="1">
                    <mxGeometry x="810" y="-200" width="200" height="350" as="geometry"/>
                </mxCell>
                <mxCell id="380" value="Sign Up" style="strokeWidth=1;shadow=0;dashed=0;align=center;html=1;shape=mxgraph.mockup.forms.anchor;fontSize=12;fontColor=#666666;align=left;resizeWidth=1;spacingLeft=0;" vertex="1" parent="379">
                    <mxGeometry width="100" height="20" relative="1" as="geometry">
                        <mxPoint x="10" y="10" as="offset"/>
                    </mxGeometry>
                </mxCell>
                <mxCell id="381" value="" style="shape=line;strokeColor=#ddeeff;strokeWidth=2;html=1;resizeWidth=1;" vertex="1" parent="379">
                    <mxGeometry width="180" height="10" relative="1" as="geometry">
                        <mxPoint x="10" y="30" as="offset"/>
                    </mxGeometry>
                </mxCell>
                <mxCell id="382" value="User Name:" style="strokeWidth=1;shadow=0;dashed=0;align=center;html=1;shape=mxgraph.mockup.forms.anchor;fontSize=12;fontColor=#666666;align=left;resizeWidth=1;spacingLeft=0;" vertex="1" parent="379">
                    <mxGeometry width="100" height="20" relative="1" as="geometry">
                        <mxPoint x="10" y="40" as="offset"/>
                    </mxGeometry>
                </mxCell>
                <mxCell id="383" value="johndoe" style="strokeWidth=1;shadow=0;dashed=0;align=center;html=1;shape=mxgraph.mockup.forms.rrect;rSize=0;strokeColor=#999999;fontColor=#666666;align=left;spacingLeft=5;resizeWidth=1;" vertex="1" parent="379">
                    <mxGeometry width="150" height="25" relative="1" as="geometry">
                        <mxPoint x="10" y="60" as="offset"/>
                    </mxGeometry>
                </mxCell>
                <mxCell id="384" value="Email:" style="strokeWidth=1;shadow=0;dashed=0;align=center;html=1;shape=mxgraph.mockup.forms.anchor;fontSize=12;fontColor=#666666;align=left;resizeWidth=1;spacingLeft=0;" vertex="1" parent="379">
                    <mxGeometry width="100" height="20" relative="1" as="geometry">
                        <mxPoint x="10" y="95" as="offset"/>
                    </mxGeometry>
                </mxCell>
                <mxCell id="385" value="abcde@gmail.com" style="strokeWidth=1;shadow=0;dashed=0;align=center;html=1;shape=mxgraph.mockup.forms.rrect;rSize=0;strokeColor=#999999;fontColor=#666666;align=left;spacingLeft=5;resizeWidth=1;" vertex="1" parent="379">
                    <mxGeometry width="150" height="25" relative="1" as="geometry">
                        <mxPoint x="10" y="115" as="offset"/>
                    </mxGeometry>
                </mxCell>
                <mxCell id="388" value="" style="shape=line;strokeColor=#ddeeff;strokeWidth=2;html=1;resizeWidth=1;" vertex="1" parent="379">
                    <mxGeometry y="1" width="180" height="10" relative="1" as="geometry">
                        <mxPoint x="10" y="-90" as="offset"/>
                    </mxGeometry>
                </mxCell>
                <mxCell id="389" value="New User" style="strokeWidth=1;shadow=0;dashed=0;align=center;html=1;shape=mxgraph.mockup.forms.anchor;fontSize=12;fontColor=#666666;align=left;spacingLeft=0;resizeWidth=1;" vertex="1" parent="379">
                    <mxGeometry y="1" width="150" height="20" relative="1" as="geometry">
                        <mxPoint x="10" y="-70" as="offset"/>
                    </mxGeometry>
                </mxCell>
                <mxCell id="390" value="RESISTER" style="strokeWidth=1;shadow=0;dashed=0;align=center;html=1;shape=mxgraph.mockup.forms.rrect;rSize=5;strokeColor=none;fontColor=#ffffff;fillColor=#66bbff;fontSize=16;fontStyle=1;" vertex="1" parent="379">
                    <mxGeometry y="1" width="110" height="30" relative="1" as="geometry">
                        <mxPoint x="10" y="-50" as="offset"/>
                    </mxGeometry>
                </mxCell>
                <mxCell id="393" value="********" style="strokeWidth=1;shadow=0;dashed=0;align=center;html=1;shape=mxgraph.mockup.forms.rrect;rSize=0;strokeColor=#999999;fontColor=#666666;align=left;spacingLeft=5;resizeWidth=1;" vertex="1" parent="379">
                    <mxGeometry x="10" y="175" width="150" height="25" as="geometry"/>
                </mxCell>
                <mxCell id="394" value="" style="verticalLabelPosition=bottom;html=1;verticalAlign=top;align=center;strokeColor=none;fillColor=#00BEF2;shape=mxgraph.azure.user;fontColor=#FFFFFF;" vertex="1" parent="379">
                    <mxGeometry x="10" y="210" width="47.5" height="50" as="geometry"/>
                </mxCell>
                <mxCell id="395" value="Your Image" style="strokeWidth=1;shadow=0;dashed=0;align=center;html=1;shape=mxgraph.mockup.forms.anchor;fontSize=12;fontColor=#666666;align=left;resizeWidth=1;spacingLeft=0;" vertex="1" parent="379">
                    <mxGeometry x="70" y="210" width="100" height="20" as="geometry"/>
                </mxCell>
                <mxCell id="392" value="Password:" style="strokeWidth=1;shadow=0;dashed=0;align=center;html=1;shape=mxgraph.mockup.forms.anchor;fontSize=12;fontColor=#666666;align=left;resizeWidth=1;spacingLeft=0;" vertex="1" parent="1">
                    <mxGeometry x="820" y="-50" width="100" height="20" as="geometry"/>
                </mxCell>
                <mxCell id="66" value="" style="endArrow=classic;html=1;exitX=1.013;exitY=0.6;exitDx=0;exitDy=0;entryX=-0.015;entryY=0.906;entryDx=0;entryDy=0;entryPerimeter=0;exitPerimeter=0;" parent="1" source="214" target="379" edge="1">
                    <mxGeometry x="30" y="-170" width="50" height="50" as="geometry">
                        <mxPoint x="848" y="80" as="sourcePoint"/>
                        <mxPoint x="1059.4450000000002" y="302.1999999999998" as="targetPoint"/>
                    </mxGeometry>
                </mxCell>
                <mxCell id="398" value="" style="curved=1;endArrow=classic;html=1;fontColor=#FFFFFF;exitX=0;exitY=0.467;exitDx=0;exitDy=0;exitPerimeter=0;entryX=0.057;entryY=-0.094;entryDx=0;entryDy=0;entryPerimeter=0;" edge="1" parent="1" source="210" target="354">
                    <mxGeometry width="50" height="50" relative="1" as="geometry">
                        <mxPoint x="500" y="90" as="sourcePoint"/>
                        <mxPoint x="550" y="40" as="targetPoint"/>
                        <Array as="points">
                            <mxPoint x="550" y="90"/>
                            <mxPoint x="500" y="150"/>
                            <mxPoint x="500" y="170"/>
                        </Array>
                    </mxGeometry>
                </mxCell>
                <mxCell id="63" value="" style="endArrow=classic;html=1;exitX=0.538;exitY=1.1;exitDx=0;exitDy=0;exitPerimeter=0;" parent="1" source="390" edge="1">
                    <mxGeometry x="-83.9" y="-180" width="50" height="50" as="geometry">
                        <mxPoint x="896.1" y="160" as="sourcePoint"/>
                        <mxPoint x="879" y="256" as="targetPoint"/>
                    </mxGeometry>
                </mxCell>
                <mxCell id="399" value="this is a modal" style="shape=callout;whiteSpace=wrap;html=1;perimeter=calloutPerimeter;shadow=0;glass=0;comic=0;gradientColor=none;size=20;position=0.64;position2=0.67;base=20;direction=east;flipH=0;flipV=0;" vertex="1" parent="1">
                    <mxGeometry x="740" y="980" width="140" height="50" as="geometry"/>
                </mxCell>
                <mxCell id="444" value="" style="dashed=0;shape=rect;fillColor=#ffffff;strokeColor=none;fontColor=#FFFFFF;align=left;" vertex="1" parent="1">
                    <mxGeometry x="1130" y="1020" width="358" height="642" as="geometry"/>
                </mxCell>
                <mxCell id="445" value="12:30" style="dashed=0;shape=rect;align=right;fillColor=#00A0B4;strokeColor=none;fontColor=#FFFFFF;spacingRight=4;spacingTop=1;fontStyle=0;fontSize=13;resizeWidth=1;" vertex="1" parent="444">
                    <mxGeometry width="358" height="24" relative="1" as="geometry"/>
                </mxCell>
                <mxCell id="447" value="磯村 茜さんの相談部屋" style="dashed=0;shape=rect;strokeColor=none;fillColor=#00BCD4;resizeWidth=1;fontSize=20;fontColor=#FFFFFF;spacingTop=9;verticalAlign=top;align=left;spacingLeft=72;" vertex="1" parent="444">
                    <mxGeometry width="358" height="104" relative="1" as="geometry">
                        <mxPoint y="24" as="offset"/>
                    </mxGeometry>
                </mxCell>
                <mxCell id="449" value="TOP PAGE" style="text;fontSize=13;fontColor=#FFFFFF;verticalAlign=middle;align=center;resizeWidth=1;" vertex="1" parent="447">
                    <mxGeometry y="1" width="119" height="48" relative="1" as="geometry">
                        <mxPoint y="-48" as="offset"/>
                    </mxGeometry>
                </mxCell>
                <mxCell id="450" value="相談中の部屋一覧" style="text;fontSize=13;fontColor=#FFFFFF;verticalAlign=middle;align=center;textOpacity=80;resizeWidth=1;" vertex="1" parent="447">
                    <mxGeometry x="0.33" y="1" width="120" height="48" relative="1" as="geometry">
                        <mxPoint y="-48" as="offset"/>
                    </mxGeometry>
                </mxCell>
                <mxCell id="452" value="" style="dashed=0;shape=rect;strokeColor=none;fillColor=#F1FB8F;resizeWidth=1;" vertex="1" parent="447">
                    <mxGeometry y="1" width="119" height="4" relative="1" as="geometry">
                        <mxPoint y="-3" as="offset"/>
                    </mxGeometry>
                </mxCell>
                <mxCell id="474" value="" style="aspect=fixed;pointerEvents=1;shadow=0;dashed=0;html=1;strokeColor=none;labelPosition=center;verticalLabelPosition=bottom;verticalAlign=top;align=center;fillColor=#00188D;shape=mxgraph.azure.user;fontColor=#FFFFFF;" vertex="1" parent="447">
                    <mxGeometry x="20" y="6" width="47" height="50" as="geometry"/>
                </mxCell>
                <mxCell id="455" value="" style="dashed=0;shape=rect;strokeColor=none;fillColor=#000000;resizeWidth=1;" vertex="1" parent="444">
                    <mxGeometry y="1" width="358" height="48" relative="1" as="geometry">
                        <mxPoint y="-48" as="offset"/>
                    </mxGeometry>
                </mxCell>
                <mxCell id="456" value="" style="dashed=0;shape=mxgraph.gmdl.back;strokeColor=#ffffff;fillColor=#000000;strokeWidth=2;" vertex="1" parent="455">
                    <mxGeometry x="0.25" y="0.5" width="14" height="14" relative="1" as="geometry">
                        <mxPoint x="-7" y="-7" as="offset"/>
                    </mxGeometry>
                </mxCell>
                <mxCell id="457" value="" style="shape=ellipse;strokeColor=#ffffff;fillColor=#000000;strokeWidth=2;" vertex="1" parent="455">
                    <mxGeometry x="0.5" y="0.5" width="14" height="14" relative="1" as="geometry">
                        <mxPoint x="-7" y="-7" as="offset"/>
                    </mxGeometry>
                </mxCell>
                <mxCell id="458" value="" style="shape=rect;strokeColor=#ffffff;fillColor=#000000;strokeWidth=2;" vertex="1" parent="455">
                    <mxGeometry x="0.75" y="0.5" width="14" height="14" relative="1" as="geometry">
                        <mxPoint x="-7" y="-7" as="offset"/>
                    </mxGeometry>
                </mxCell>
                <mxCell id="477" value="" style="aspect=fixed;pointerEvents=1;shadow=0;dashed=0;html=1;strokeColor=none;labelPosition=center;verticalLabelPosition=bottom;verticalAlign=top;align=center;fillColor=#00188D;shape=mxgraph.azure.user;fontColor=#FFFFFF;" vertex="1" parent="444">
                    <mxGeometry x="30" y="380" width="47" height="50" as="geometry"/>
                </mxCell>
                <mxCell id="476" value="" style="aspect=fixed;pointerEvents=1;shadow=0;dashed=0;html=1;strokeColor=none;labelPosition=center;verticalLabelPosition=bottom;verticalAlign=top;align=center;fillColor=#00188D;shape=mxgraph.azure.user;fontColor=#FFFFFF;flipH=1;" vertex="1" parent="444">
                    <mxGeometry x="290" y="230" width="47" height="50" as="geometry"/>
                </mxCell>
                <mxCell id="479" value="" style="html=1;verticalLabelPosition=bottom;align=center;labelBackgroundColor=#ffffff;verticalAlign=top;strokeWidth=2;strokeColor=#0080F0;shadow=0;dashed=0;shape=mxgraph.ios7.icons.message;fontColor=#FFFFFF;" vertex="1" parent="444">
                    <mxGeometry x="40" y="140" width="230" height="90" as="geometry"/>
                </mxCell>
                <mxCell id="480" value="" style="outlineConnect=0;fontColor=#232F3E;gradientColor=none;fillColor=#232F3E;strokeColor=none;dashed=0;verticalLabelPosition=bottom;verticalAlign=top;align=center;html=1;fontSize=12;fontStyle=0;aspect=fixed;pointerEvents=1;shape=mxgraph.aws4.camera2;" vertex="1" parent="444">
                    <mxGeometry x="280" y="190" width="20.13" height="16" as="geometry"/>
                </mxCell>
                <mxCell id="481" value="submit" style="dashed=0;align=center;fontSize=12;shape=rect;strokeColor=none;fontStyle=1;shadow=1;fontColor=#ffffff;fillColor=#00BCD4;" vertex="1" parent="444">
                    <mxGeometry x="200" y="254" width="70" height="26" as="geometry"/>
                </mxCell>
                <mxCell id="482" value="" style="html=1;verticalLabelPosition=bottom;align=center;labelBackgroundColor=#ffffff;verticalAlign=top;strokeWidth=2;strokeColor=#0080F0;shadow=0;dashed=0;shape=mxgraph.ios7.icons.message;fontColor=#FFFFFF;flipH=1;" vertex="1" parent="444">
                    <mxGeometry x="90" y="310" width="230" height="90" as="geometry"/>
                </mxCell>
                <mxCell id="483" value="" style="html=1;verticalLabelPosition=bottom;align=center;labelBackgroundColor=#ffffff;verticalAlign=top;strokeWidth=2;strokeColor=#0080F0;shadow=0;dashed=0;shape=mxgraph.ios7.icons.message;fontColor=#FFFFFF;flipH=0;" vertex="1" parent="444">
                    <mxGeometry x="30" y="460" width="230" height="90" as="geometry"/>
                </mxCell>
                <mxCell id="484" value="" style="aspect=fixed;pointerEvents=1;shadow=0;dashed=0;html=1;strokeColor=none;labelPosition=center;verticalLabelPosition=bottom;verticalAlign=top;align=center;fillColor=#00188D;shape=mxgraph.azure.user;fontColor=#FFFFFF;flipH=1;" vertex="1" parent="444">
                    <mxGeometry x="273" y="520" width="47" height="50" as="geometry"/>
                </mxCell>
                <mxCell id="485" value="" style="edgeStyle=none;html=1;exitX=1.009;exitY=0.475;exitDx=0;exitDy=0;exitPerimeter=0;entryX=0;entryY=0.5;entryDx=0;entryDy=0;" edge="1" parent="1" source="324" target="455">
                    <mxGeometry x="618.54" y="1467" as="geometry">
                        <mxPoint x="960.25" y="1640" as="sourcePoint"/>
                        <mxPoint x="1130" y="1649" as="targetPoint"/>
                    </mxGeometry>
                </mxCell>
            </root>
        </mxGraphModel>
    </diagram>
</mxfile>